<svg width="299" height="100" viewBox="0 0 299 100" fill="none" xmlns="http://www.w3.org/2000/svg">
<path d="M16.6667 100C25.8667 100 33.3333 92.5337 33.3333 83.3337V66.667H16.6667C7.46667 66.667 0 74.1337 0 83.3337C0 92.5337 7.46667 100 16.6667 100Z" fill="#0ACF83"/>
<path d="M0 49.9997C0 40.7997 7.46667 33.333 16.6667 33.333H33.3333V66.6663H16.6667C7.46667 66.6663 0 59.1997 0 49.9997Z" fill="#A259FF"/>
<path d="M0 16.6667C0 7.46667 7.46667 0 16.6667 0H33.3333V33.3333H16.6667C7.46667 33.3333 0 25.8667 0 16.6667Z" fill="#F24E1E"/>
<path d="M33.333 0H49.9997C59.1997 0 66.6663 7.46667 66.6663 16.6667C66.6663 25.8667 59.1997 33.3333 49.9997 33.3333H33.333V0Z" fill="#FF7262"/>
<path d="M66.6663 49.9997C66.6663 59.1997 59.1997 66.6663 49.9997 66.6663C40.7997 66.6663 33.333 59.1997 33.333 49.9997C33.333 40.7997 40.7997 33.333 49.9997 33.333C59.1997 33.333 66.6663 40.7997 66.6663 49.9997Z" fill="#1ABCFE"/>
<path d="M100.374 0H164.958C174.749 0 182.666 8.11966 182.666 18.1624V81.8376C182.666 91.8803 174.749 100 164.958 100H100.374C90.5827 100 82.666 91.8803 82.666 81.8376V18.1624C82.666 8.11966 90.5827 0 100.374 0Z" fill="#001E36"/>
<path d="M105.166 70.1286V26.1542C105.166 25.8551 105.291 25.6841 105.583 25.6841C106.291 25.6841 106.958 25.6841 107.916 25.6414C108.916 25.5987 109.958 25.5987 111.083 25.5559C112.208 25.5132 113.416 25.5132 114.708 25.4705C115.999 25.4277 117.249 25.4277 118.499 25.4277C121.916 25.4277 124.749 25.8551 127.083 26.7525C129.166 27.479 131.083 28.6756 132.666 30.2568C133.999 31.6243 135.041 33.291 135.708 35.1286C136.333 36.9235 136.666 38.7611 136.666 40.6841C136.666 44.3594 135.833 47.3935 134.166 49.7867C132.499 52.1799 130.166 53.9747 127.458 55.0004C124.624 56.0688 121.499 56.4534 118.083 56.4534C117.083 56.4534 116.416 56.4534 115.999 56.4106C115.583 56.3679 114.999 56.3679 114.208 56.3679V70.0859C114.249 70.385 114.041 70.6414 113.749 70.6841H105.666C105.333 70.6841 105.166 70.5132 105.166 70.1286ZM114.249 33.932V48.291C114.833 48.3337 115.374 48.3765 115.874 48.3765H118.083C119.708 48.3765 121.333 48.12 122.874 47.6072C124.208 47.2226 125.374 46.4106 126.291 45.3423C127.166 44.2739 127.583 42.8209 127.583 40.9406C127.624 39.6158 127.291 38.291 126.624 37.1371C125.916 36.026 124.916 35.1713 123.708 34.7012C122.166 34.0602 120.499 33.8038 118.791 33.8465C117.708 33.8465 116.749 33.8465 115.958 33.8893C115.124 33.8465 114.541 33.8893 114.249 33.932V33.932ZM162.666 45.6841C161.416 45.0004 160.083 44.5303 158.666 44.2312C157.124 43.8893 155.583 43.6756 153.999 43.6756C153.166 43.6329 152.291 43.7611 151.499 43.9747C150.958 44.1029 150.499 44.4021 150.208 44.8294C149.999 45.1713 149.874 45.5987 149.874 45.9833C149.874 46.3679 150.041 46.7525 150.291 47.0944C150.666 47.5645 151.166 47.9491 151.708 48.2482C152.666 48.7611 153.666 49.2312 154.666 49.6585C156.916 50.4277 159.083 51.4961 161.083 52.7782C162.458 53.6756 163.583 54.8722 164.374 56.3252C165.041 57.6927 165.374 59.1884 165.333 60.7269C165.374 62.7354 164.791 64.744 163.708 66.4106C162.541 68.12 160.916 69.4448 159.041 70.2141C156.999 71.1115 154.499 71.5816 151.499 71.5816C149.583 71.5816 147.708 71.4106 145.833 71.026C144.374 70.7696 142.916 70.2995 141.583 69.6585C141.291 69.4876 141.083 69.1884 141.124 68.8465V61.4106C141.124 61.2824 141.166 61.1115 141.291 61.026C141.416 60.9406 141.541 60.9833 141.666 61.0688C143.291 62.0517 144.999 62.7354 146.833 63.1628C148.416 63.5901 150.083 63.8038 151.749 63.8038C153.333 63.8038 154.458 63.5901 155.208 63.2055C155.874 62.9064 156.333 62.1799 156.333 61.4106C156.333 60.8123 155.999 60.2568 155.333 59.7012C154.666 59.1457 153.291 58.5047 151.249 57.6927C149.124 56.9235 147.166 55.8978 145.333 54.6158C144.041 53.6756 142.958 52.4363 142.166 50.9833C141.499 49.6158 141.166 48.12 141.208 46.6243C141.208 44.7867 141.708 43.0346 142.624 41.4534C143.666 39.744 145.208 38.3765 146.999 37.5218C148.958 36.4961 151.416 36.026 154.374 36.026C156.083 36.026 157.833 36.1542 159.541 36.4106C160.791 36.5816 161.999 36.9235 163.124 37.3935C163.291 37.4363 163.458 37.6072 163.541 37.7782C163.583 37.9491 163.624 38.12 163.624 38.291V45.2568C163.624 45.4277 163.541 45.5987 163.416 45.6841C163.041 45.7696 162.833 45.7696 162.666 45.6841V45.6841Z" fill="#31A8FF"/>
<path d="M216.374 0H280.958C290.749 0 298.666 8.11966 298.666 18.1624V81.8376C298.666 91.8803 290.749 100 280.958 100H216.374C206.583 100 198.666 91.8803 198.666 81.8376V18.1624C198.666 8.11966 206.583 0 216.374 0Z" fill="#330000"/>
<path d="M247 59.8293H231.5L228.333 69.872C228.25 70.2566 227.916 70.513 227.541 70.4703H219.708C219.25 70.4703 219.125 70.2139 219.25 69.7011L232.666 30.0857C232.791 29.6583 232.916 29.1882 233.083 28.6754C233.25 27.778 233.333 26.8378 233.333 25.8976C233.291 25.684 233.458 25.4703 233.666 25.4276H244.458C244.791 25.4276 244.958 25.5558 245 25.7694L260.208 69.7865C260.333 70.2566 260.208 70.4703 259.791 70.4703H251.083C250.791 70.513 250.5 70.2994 250.416 70.0002L247 59.8293ZM233.916 51.154H244.5C244.25 50.2566 243.916 49.1882 243.541 48.0771C243.166 46.9233 242.791 45.684 242.416 44.4019C242 43.0771 241.625 41.7951 241.208 40.4703C240.791 39.1455 240.416 37.9062 240.083 36.6669C239.75 35.4703 239.458 34.3592 239.166 33.3335H239.083C238.708 35.1711 238.25 37.0087 237.666 38.8464C237.041 40.8976 236.416 43.0344 235.75 45.1711C235.166 47.3506 234.541 49.3592 233.916 51.154ZM269.5 32.9062C268.125 32.9489 266.791 32.3934 265.791 31.4105C264.833 30.3421 264.333 28.9318 264.375 27.4788C264.333 26.0258 264.875 24.6583 265.875 23.6754C266.875 22.6925 268.208 22.1797 269.583 22.1797C271.208 22.1797 272.458 22.6925 273.375 23.6754C274.291 24.7011 274.791 26.0686 274.75 27.4788C274.791 28.9318 274.291 30.3421 273.291 31.4105C272.333 32.4361 270.916 32.9917 269.5 32.9062ZM264.833 70.0002V37.0942C264.833 36.6669 265 36.4959 265.375 36.4959H273.625C274 36.4959 274.166 36.7096 274.166 37.0942V70.0002C274.166 70.4703 274 70.684 273.625 70.684H265.458C265.041 70.684 264.833 70.4276 264.833 70.0002V70.0002Z" fill="#FF9A00"/>
</svg>
