<svg width="100" height="100" viewBox="0 0 100 100" fill="none" xmlns="http://www.w3.org/2000/svg">
<g clip-path="url(#clip0_110_196)">
<path d="M0 0H100V100H0V0Z" fill="#F0DB4F"/>
<path d="M91.8155 76.1502C91.0836 71.5875 88.1083 67.7567 79.2965 64.1825C76.2357 62.7757 72.8231 61.7682 71.806 59.4487C71.4448 58.0989 71.3973 57.3384 71.6254 56.5209C72.2813 53.8688 75.4467 53.0418 77.9562 53.8023C79.5722 54.3441 81.1026 55.5895 82.0246 57.5761C86.3402 54.7815 86.3307 54.8004 89.344 52.8803C88.2414 51.1693 87.652 50.3802 86.9296 49.6484C84.3345 46.7492 80.7984 45.2568 75.1425 45.3708C74.1634 45.4944 73.1749 45.6274 72.1957 45.7511C69.3726 46.464 66.6824 47.9469 65.1045 49.9336C60.3707 55.3043 61.7205 64.7053 67.4809 68.5743C73.1558 72.8328 81.4923 73.8024 82.557 77.7853C83.5931 82.6617 78.9734 84.2396 74.3821 83.6788C70.998 82.9754 69.116 81.2549 67.0817 78.1275C63.3365 80.2948 63.3365 80.2948 59.4867 82.5096C60.3993 84.5058 61.3592 85.4089 62.8898 87.1389C70.1331 94.4868 88.2604 94.1256 91.5114 83.0039C91.6444 82.6236 92.519 80.0761 91.8155 76.1502ZM54.3631 45.9601H45.0094C45.0094 54.0399 44.9715 62.0628 44.9715 70.1426C44.9715 75.2852 45.2377 80 44.4012 81.4449C43.0323 84.287 39.4867 83.9354 37.8707 83.3839C36.2263 82.576 35.3898 81.4258 34.4202 79.8004C34.154 79.3346 33.9544 78.9734 33.8878 78.9449C31.3498 80.4943 28.8212 82.0532 26.2832 83.6027C27.5476 86.1977 29.4106 88.4506 31.7965 89.9144C35.3611 92.0531 40.152 92.709 45.1616 91.5588C48.4221 90.6083 51.2357 88.6407 52.7091 85.6464C54.8383 81.7205 54.3821 76.9677 54.3631 71.711C54.4106 63.1369 54.3631 54.5627 54.3631 45.9601Z" fill="#323330"/>
</g>
<defs>
<clipPath id="clip0_110_196">
<rect width="100" height="100" rx="5" fill="white"/>
</clipPath>
</defs>
</svg>
