<svg xmlns="http://www.w3.org/2000/svg" viewBox="0 0 820 820"><defs><style>.cls-1{fill:none;stroke:#000;stroke-miterlimit:10;stroke-width:30px;}</style></defs><g id="Layer_2" data-name="Layer 2"><g id="Layer_1-2" data-name="Layer 1"><path d="M128.8,159.1a24,24,0,1,0-29.6,37.8l592,464a24,24,0,1,0,29.6-37.8L567.4,502.9A161.8,161.8,0,0,0,570,474h64a32,32,0,0,0,0-64H569.7a105.26,105.26,0,0,0-11.1-39.5c.7-.6,1.4-1.2,2.1-1.9l64-64a32,32,0,0,0-45.3-45.3l-64,64c-.7.7-1.3,1.4-1.9,2.1A104,104,0,0,0,466,314H354a105.11,105.11,0,0,0-24,2.8ZM410,154a96,96,0,0,0-96,96v3.6A28.38,28.38,0,0,0,342.4,282H477.6A28.38,28.38,0,0,0,506,253.6V250A96,96,0,0,0,410,154ZM250.3,410H186a32,32,0,0,0,0,64h64a159,159,0,0,0,15.4,68.6,27.53,27.53,0,0,0-6,4.8l-64,64a32,32,0,0,0,45.3,45.3l63.1-63.1a159.19,159.19,0,0,0,90.3,39.6V489.5L256.7,381.3A105.11,105.11,0,0,0,250.3,410ZM426,633.2a158.92,158.92,0,0,0,94.8-43.8L426,514.7Z"/><circle class="cls-1" cx="410" cy="410" r="395"/></g></g></svg>